<?xml version="1.0" encoding="utf-8"?>
<!-- Generator: Adobe Illustrator 16.0.0, SVG Export Plug-In . SVG Version: 6.00 Build 0)  -->
<!DOCTYPE svg PUBLIC "-//W3C//DTD SVG 1.1//EN" "http://www.w3.org/Graphics/SVG/1.1/DTD/svg11.dtd">
<svg version="1.1" id="Ebene_1" xmlns="http://www.w3.org/2000/svg" xmlns:xlink="http://www.w3.org/1999/xlink" x="0px" y="0px"
	 width="841.89px" height="841.89px" viewBox="0 0 841.89 841.89" enable-background="new 0 0 841.89 841.89" xml:space="preserve">
<path fill="#49A05F" stroke="#000000" stroke-width="7" stroke-miterlimit="10" d="M612.57,391.215l-1.339,10.538
	c-0.633,4.983,25.962,6.197,29.151,6.663l32.787,11.682l2.285,103.918c0.27,15.219,7.087,34.175,9.449,35.764
	c0.961,0.768,5.854,14.987,29.573,21.901l101.732,15.636c4.914,1.374,9.938-1.438,11.215-6.295l3.073-11.71
	c1.271-4.849-1.677-9.903-6.601-11.277l-116.372-28.256l1.779-93.957c2.87-10.651,2.927-35.406,1.41-36.969
	c-0.811-2.009,0.095-13.113-14.343-14.464l-76.883-11.351C616.304,382.565,613.208,386.226,612.57,391.215z"/>
<path fill="#49A05F" stroke="#000000" stroke-width="7" stroke-miterlimit="10" d="M616.371,314.186l5.611,6.75
	c2.654,3.191,14.217-13.23,15.791-15.021l20.207-14.553l61.66,56.606c9.004,8.331,22.865,14.541,24.757,13.911
	c0.841-0.189,11.147,4.611,24.868-6.776l50.654-56.679c2.809-2.391,3.215-7.193,0.898-10.729l-5.588-8.521
	c-2.316-3.528-6.473-4.457-9.285-2.059l-64.005,59.038l-54.18-53.652c-5.054-7.799-19.497-21.67-21.028-21.568
	c-1.505-0.602-7.625-7.389-14.307,1.139l-38.01,43.094C612.84,306.951,613.715,310.986,616.371,314.186z"/>
<path fill="#49A05F" stroke="#000000" stroke-width="7" stroke-miterlimit="10" d="M232.426,434.571l1.175,10.557
	c0.555,4.992-26.055,5.794-29.251,6.21l-32.964,11.171l-3.899,103.87c-0.507,15.213-7.619,34.061-10.004,35.612
	c-0.973,0.753-6.085,14.895-29.911,21.439L25.608,637.483c-4.934,1.298-9.914-1.592-11.115-6.468l-2.891-11.756
	c-1.197-4.868,1.831-9.876,6.775-11.174l116.797-26.445l-0.319-93.973c-2.705-10.694-2.377-35.447-0.836-36.986
	c0.841-1.996,0.109-13.113,14.565-14.24l77.05-10.154C228.828,425.864,231.866,429.571,232.426,434.571z"/>
<path fill="#49A05F" stroke="#000000" stroke-width="7" stroke-miterlimit="10" d="M219.601,356.584l-5.61,6.75
	c-2.655,3.192-14.217-13.229-15.792-15.021l-20.206-14.553l-61.661,56.607c-9.004,8.331-22.865,14.541-24.756,13.911
	c-0.841-0.189-11.147,4.612-24.869-6.776l-50.654-56.678c-2.809-2.391-3.215-7.193-0.898-10.729l5.588-8.521
	c2.315-3.528,6.472-4.457,9.285-2.059l64.005,59.038l54.18-53.651c5.054-7.8,19.497-21.67,21.029-21.569
	c1.504-0.601,7.625-7.388,14.307,1.138l38.009,43.094C223.134,349.35,222.257,353.385,219.601,356.584z"/>
<path id="ReifenRechts" fill="#010202" stroke="#000000" stroke-miterlimit="10" d="M596.923,683.726
	c0,6.796-7.92,22.688-17.689,22.688h-24.527c-9.77,0-17.689-16.756-17.689-23.552v-61.556c0-6.796,7.92-12.306,17.689-12.306h24.527
	c9.77,0,17.689,5.51,17.689,12.306V683.726z"/>
<path id="ReifenLinks" fill="#010202" stroke="#000000" stroke-miterlimit="10" d="M299.427,683.726
	c0,6.796-7.919,22.688-17.689,22.688H257.21c-9.769,0-17.688-16.756-17.688-23.552v-61.556c0-6.796,7.919-12.306,17.688-12.306
	h24.528c9.77,0,17.689,5.51,17.689,12.306V683.726z"/>
<path id="Bus" fill="#E62F2D" stroke="#000000" stroke-width="10" stroke-miterlimit="10" d="M206.426,636.674l0.098-373.209
	c0,0-0.098-89.894,220.021-89.894c208.919,0,205.993,87.425,205.993,87.425l2.926,375.678H426.545H206.426z"/>
<g id="Kennzeichen_1_">
	
		<rect x="315.887" y="576.083" fill="#FFFFFF" stroke="#000000" stroke-width="3" stroke-miterlimit="10" width="210.116" height="34.498"/>
	<text transform="matrix(1 0.0057 -0.0057 1 339.8506 600.6191)" font-family="'MyriadPro-Bold'" font-size="26">MS - SOPRA 08</text>
</g>
<path id="Fenster" fill="#A7D8D9" stroke="#000000" stroke-miterlimit="10" d="M251.841,414.658l1.918-150.777
	c0,0-0.734-48.795,172.786-49.881c164.69-1.031,163.052,46.781,163.052,46.781l0.452,151.759l-164.689,1.031L251.841,414.658z"/>
<ellipse fill="#36A9E1" cx="516.47" cy="456.957" rx="72.918" ry="94.232"/>
<ellipse fill="#36A9E1" cx="516.471" cy="322.162" rx="44.078" ry="40.563"/>
<rect x="269.475" y="413.547" fill="#E62F2D" width="337.911" height="153.537"/>
<path id="ScheinwerferRechts" fill="#F9D812" stroke="#000000" stroke-width="3" stroke-miterlimit="10" d="M619.549,549
	c0,6.627-6.469,12-14.449,12h-30.102c-7.98,0-14.449-5.373-14.449-12v-13c0-6.627,6.469-12,14.449-12H605.1
	c7.98,0,14.449,5.373,14.449,12V549z"/>
<path id="ScheinwerferLinks" fill="#F3E602" stroke="#000000" stroke-width="3" stroke-miterlimit="10" d="M281.341,549
	c0,6.627-6.469,12-14.449,12H236.79c-7.98,0-14.449-5.373-14.449-12v-13c0-6.627,6.469-12,14.449-12h30.102
	c7.98,0,14.449,5.373,14.449,12V549z"/>
</svg>
